# xmcd
#
# Track frame offsets: 
#        150
#        14796
#        30883
#        48118
#        62962
#        77811
#        102227
#        119112
#        141606
#        160983
#        181183
#        196618
#        215203
#        236442
#        258697
#
# Disc length: 3703 seconds
#
# Revision: 1
# Processed by: cddbd v1.5.2PL0 Copyright (c) Steve Scherf et al.
# Submitted via: ExactAudioCopy v0.99pb4
#
DISCID=db0e750f
DTITLE=DJ Max (7) - House Attack - International
DYEAR=2000
DGENRE=House
TTITLE0=Gigi D'Agostino - Bla,Bla,Bla
TTITLE1=Ian Dury and The Blockheads - Sex, Drags and Rock'N'Roll
TTITLE2=R. Montezz - Disco Attack
TTITLE3=DJ Disco - Get Up Get Up
TTITLE4=Enrico - The Disclubber
TTITLE5=DJ Jean - Love Come Home
TTITLE6=Ibiza United vs. K.K. Project - Wait A Minute
TTITLE7=Klubbheads - Turn Up The Bass
TTITLE8=Clubwatchers - Let The Rythm Roll
TTITLE9=Das Boxenlunder - Billing
TTITLE10=666 - D.E.V.I.L.
TTITLE11=Base 1 (2) - My Way
TTITLE12=Fab Flavour - Burning Like Fire
TTITLE13=DJ Crack - Singular 2000
TTITLE14=Club Caviar - Pouring Love (Sex File)
EXTD=
EXTT0=
EXTT1=
EXTT2=
EXTT3=
EXTT4=
EXTT5=
EXTT6=
EXTT7=
EXTT8=
EXTT9=
EXTT10=
EXTT11=
EXTT12=
EXTT13=
EXTT14=
PLAYORDER=
